<svg xmlns="http://www.w3.org/2000/svg" xmlns:xlink="http://www.w3.org/1999/xlink" width="192" height="171" viewBox="0 0 192 171"><defs><path id="a" d="M0 0h192v162H0z"/></defs><g fill="none" fill-rule="evenodd"><g transform="translate(0 9)"><mask id="b" fill="#fff"><use xlink:href="#a"/></mask><use fill="#51BEFF" xlink:href="#a"/><path fill="#FFF" stroke="#0067A5" stroke-width="2" d="M99.053 180.751A41.804 41.804 0 0 1 77 187a41.81 41.81 0 0 1-24.446-7.843C46.744 195.387 31.228 207 13 207c-23.196 0-42-18.804-42-42s18.804-42 42-42a41.81 41.81 0 0 1 24.446 7.843C43.256 114.613 58.772 103 77 103c17.626 0 32.716 10.857 38.947 26.249A41.804 41.804 0 0 1 138 123c23.196 0 42 18.804 42 42s-18.804 42-42 42c-17.626 0-32.716-10.857-38.947-26.249zM55 165c0 4.968-.862 9.734-2.446 14.157z" mask="url(#b)"/><path stroke="#0067A5" stroke-linecap="round" stroke-width="2" d="M80 123c-12.15 0-22 9.85-22 22m53-12c-6.075 0-11 4.925-11 11" mask="url(#b)"/></g><g transform="translate(100 1)"><circle cx="15.5" cy="15.5" r="15.5" fill="#FFF" stroke="#0067A5" stroke-width="2"/><path fill="#F8E71C" d="M12.831 27.909C6.681 26.856 2 21.499 2 15.049 2 7.841 7.842 2 15.048 2 18.514 2 21.664 3.35 24 5.555a13.134 13.134 0 0 0-2.217-.188c-7.207 0-13.048 5.842-13.048 13.049 0 3.74 1.574 7.114 4.096 9.493z"/></g><g transform="translate(102 50)"><rect width="2" height="14" x="25.339" y="30.211" fill="#0067A5" rx="1" transform="rotate(45 26.339 37.211)"/><rect width="2" height="14" x="23.925" y="42.939" fill="#0067A5" rx="1" transform="rotate(45 24.925 49.94)"/><rect width="2" height="14" x="7.661" y="37.99" fill="#0067A5" rx="1" transform="rotate(45 8.661 44.99)"/><rect width="2" height="14" x="15.439" y="59.91" fill="#0067A5" rx="1" transform="rotate(45 16.44 66.91)"/><rect width="2" height="14" x="4.833" y="54.96" fill="#0067A5" rx="1" transform="rotate(45 5.833 61.96)"/><path fill="#FFF" stroke="#0067A5" stroke-width="2" d="M58.36 8.036a2.411 2.411 0 1 0-4.822.001 2.411 2.411 0 0 0 4.823-.001zM63.987.804c0 8.337-2.31 13.886-8.262 19.863-1.456 1.431-3.114 2.913-4.897 4.42l-.502 9.517a.917.917 0 0 1-.402.653l-9.643 5.625a.737.737 0 0 1-.401.1.885.885 0 0 1-.578-.226l-1.607-1.607c-.201-.226-.276-.527-.201-.804l2.135-6.93-7.057-7.057-6.93 2.135c-.076.025-.151.025-.227.025a.838.838 0 0 1-.577-.226l-1.607-1.607c-.251-.276-.302-.678-.126-.98l5.625-9.642a.917.917 0 0 1 .653-.402l9.517-.503c1.507-1.782 2.989-3.44 4.42-4.896C49.597 2.009 54.393 0 63.132 0c.452 0 .854.352.854.804z"/><path fill="#F8E71C" d="M61.489 4.769c.04-.669.06-1.359.06-2.072 0-.392-.349-.697-.74-.697-7.58 0-11.74 1.742-17.186 7.166-1.241 1.263-2.526 2.7-3.833 4.247l-8.255.435a.796.796 0 0 0-.566.349l-4.879 8.364a.73.73 0 0 0 .11.849l1.393 1.394a.73.73 0 0 0 .501.196c.065 0 .13 0 .196-.022l2.736-.842 4.28-7.337a.796.796 0 0 1 .566-.348l8.255-.436c1.307-1.547 2.592-2.984 3.833-4.247 4.502-4.484 8.125-6.452 13.529-6.999z"/></g><g fill="#0067A5" transform="rotate(45 -76.19 94.678)"><rect width="2" height="14" x="7" rx="1"/><rect width="2" height="14" x="15" y="10" rx="1"/><rect width="2" height="14" y="18" rx="1"/><rect width="2" height="14" x="21" y="28" rx="1"/><rect width="2" height="14" x="10" y="32" rx="1"/></g><path fill="#FFF" stroke="#0067A5" stroke-width="2" d="M81.36 62.036a2.411 2.411 0 1 0-4.822.001 2.411 2.411 0 0 0 4.823-.001zm5.626-7.232c0 8.337-2.31 13.886-8.262 19.863-1.456 1.431-3.114 2.913-4.897 4.42l-.502 9.517a.917.917 0 0 1-.402.653l-9.643 5.625a.737.737 0 0 1-.401.1.885.885 0 0 1-.578-.226l-1.607-1.607c-.201-.226-.276-.527-.201-.804l2.135-6.93-7.057-7.057-6.93 2.135c-.076.025-.151.025-.227.025a.838.838 0 0 1-.577-.226l-1.607-1.607c-.251-.276-.302-.678-.126-.98l5.625-9.642a.917.917 0 0 1 .653-.402l9.517-.503c1.507-1.782 2.989-3.44 4.42-4.896C72.597 56.009 77.393 54 86.132 54c.452 0 .854.352.854.804z"/><path fill="#F8E71C" d="M83.489 58.769c.04-.669.06-1.359.06-2.072 0-.392-.349-.697-.74-.697-7.58 0-11.74 1.742-17.186 7.166-1.241 1.263-2.526 2.7-3.833 4.247l-8.255.435a.796.796 0 0 0-.566.349l-4.879 8.364a.73.73 0 0 0 .11.849l1.393 1.394a.73.73 0 0 0 .501.196c.065 0 .13 0 .196-.022l2.736-.842 4.28-7.337a.796.796 0 0 1 .566-.348l8.255-.436c1.307-1.547 2.592-2.984 3.833-4.247 4.502-4.484 8.125-6.452 13.529-6.999z"/><g fill="#0067A5" opacity=".5" transform="rotate(45 -85.752 245.717)"><rect width="2" height="14" x="7" rx="1"/><rect width="2" height="14" x="15" y="10" rx="1"/><rect width="2" height="14" y="18" rx="1"/></g><text fill="#FFF" stroke="#0067A5" stroke-width="2" font-family="FontAwesome" font-size="35" transform="translate(126 109)"><tspan x="23" y="30"></tspan></text></g></svg>