<svg xmlns="http://www.w3.org/2000/svg" width="24" height="24" viewBox="0 0 24 24"><path fill="#FFF" fill-rule="evenodd" d="M14.36 18.36v-2.454c0-.515-.157-.781-.454-.781-.172 0-.343.078-.515.25v3.5c.172.172.343.25.515.25.297 0 .453-.25.453-.766zm2.874-1.907h1.032v-.531c0-.531-.172-.797-.516-.797-.344 0-.516.266-.516.797v.531zm-8.921-4.156v1.094h-1.25V20H5.906v-6.61H4.688v-1.093h3.625zm3.14 1.969V20h-1.047v-.625c-.406.469-.797.703-1.187.703-.328 0-.563-.14-.656-.437-.063-.172-.094-.438-.094-.844v-4.531H9.5v4.218c0 .235 0 .375.016.407.015.156.093.234.234.234.219 0 .422-.156.656-.484v-4.375h1.047zM15.391 16v2.281c0 .516-.032.906-.11 1.14-.125.438-.406.657-.828.657-.36 0-.719-.219-1.062-.64V20h-1.047v-7.703h1.047v2.515c.328-.406.687-.625 1.062-.625.422 0 .703.22.828.657.078.234.11.61.11 1.156zm3.922 2.016v.14c0 .344-.016.563-.032.672-.031.234-.11.438-.234.625-.281.422-.719.625-1.25.625-.547 0-.969-.203-1.266-.594-.218-.28-.328-.734-.328-1.343v-2.016c0-.61.094-1.047.313-1.344.297-.39.718-.594 1.25-.594.515 0 .937.204 1.218.594.22.297.329.735.329 1.344v1.187h-2.079v1.016c0 .531.172.797.532.797.25 0 .406-.14.468-.406 0-.063.016-.297.016-.703h1.063zM12.266 5.14v2.437c0 .531-.172.797-.5.797-.344 0-.5-.266-.5-.797V5.141c0-.532.156-.813.5-.813.328 0 .5.281.5.813zm8.328 11.14c0-1.344 0-2.765-.297-4.062-.219-.922-.969-1.594-1.86-1.688-2.124-.234-4.28-.234-6.437-.234-2.14 0-4.297 0-6.422.234a2.139 2.139 0 0 0-1.86 1.688c-.296 1.297-.312 2.718-.312 4.062 0 1.328 0 2.75.313 4.063a2.177 2.177 0 0 0 1.844 1.687c2.14.235 4.296.235 6.437.235 2.14 0 4.297 0 6.438-.235.89-.11 1.64-.781 1.843-1.687.313-1.313.313-2.735.313-4.063zM8.797 6.11l1.406-4.625H9.031l-.797 3.047-.828-3.047H6.188c.234.72.5 1.438.734 2.157.375 1.093.61 1.906.719 2.468v3.14h1.156V6.11zm4.516 1.266V5.344c0-.61-.11-1.063-.329-1.36-.296-.39-.703-.593-1.218-.593-.532 0-.938.203-1.22.593-.218.297-.327.75-.327 1.36v2.031c0 .61.11 1.062.328 1.36.281.39.687.593 1.219.593.515 0 .922-.203 1.218-.594.22-.28.329-.75.329-1.359zM16.14 9.25h1.047V3.469H16.14V7.89c-.235.328-.453.484-.657.484-.14 0-.234-.078-.25-.25-.015-.031-.015-.156-.015-.406v-4.25h-1.047v4.578c0 .406.031.672.094.86.109.28.343.421.672.421.39 0 .78-.234 1.203-.703v.625zM24 4.5v15c0 2.484-2.016 4.5-4.5 4.5h-15A4.501 4.501 0 0 1 0 19.5v-15C0 2.016 2.016 0 4.5 0h15C21.984 0 24 2.016 24 4.5z"/></svg>