<svg xmlns="http://www.w3.org/2000/svg" width="50" height="50" viewBox="0 0 50 50"><g fill="#FFFFFE" fill-rule="evenodd"><path d="M48.788 12.064a.697.697 0 0 1 .014-.01s-2.091 1.151-6.12 1.56c-3.133.319-5.864-.101-5.864-.101s2.633.985 4.937 1.286c-2.502 2.21-3.512 4.74-4.424 7.027-1.027 2.575-1.914 4.8-4.77 6.487-3.597 2.126-5.99 2.215-9.017 2.328-1.994.074-4.253.158-7.064.883a38.07 38.07 0 0 0-4.048 1.31l4.182-5.849 1.196 1.981 7.02-10.017 5.04 8.526a17.08 17.08 0 0 0 1.677-.878c1.237-.731 2.007-1.583 2.607-2.599L24.83 8.258l-7.02 12.71-1.12-1.87L1.26 45.832l6.649-7.614c.045-.025 4.536-2.564 9.318-3.798 2.498-.645 4.496-.72 6.428-.79 3.177-.12 6.178-.23 10.428-2.743 1.68-.993 2.998-2.239 4.025-3.807.886-1.353 1.453-2.773 2-4.146.89-2.228 1.737-4.352 3.943-6.16-.772 2.331-.776 5.955-.776 5.955s.567-2.704 1.966-5.526c1.8-3.627 3.612-5.18 3.612-5.18l-.065.041"/><path d="M6.481 32.797a19.965 19.965 0 0 1-1.618-7.9c0-11.064 8.97-20.034 20.034-20.034 6.028 0 11.435 2.663 15.108 6.876l.233.001c.776 0 1.531-.036 2.243-.109a21.01 21.01 0 0 0 3.132-.548C41.148 4.4 33.537 0 24.897 0 11.147 0 0 11.147 0 24.897c0 4.722 1.314 9.136 3.597 12.898l2.884-4.998zm31.84 12.893l-2.4-4.061a19.94 19.94 0 0 1-11.024 3.303 19.98 19.98 0 0 1-14.646-6.365l-3.212 3.678a24.822 24.822 0 0 0 17.858 7.55 24.78 24.78 0 0 0 13.506-3.98 1.93 1.93 0 0 1-.082-.126m11.473-20.792c0-3.117-.573-6.1-1.618-8.85a21.947 21.947 0 0 0-1.149 2.042c-1.271 2.564-1.796 5.025-1.8 5.05a1.99 1.99 0 0 1-.321.736c.017.339.025.68.025 1.022a19.94 19.94 0 0 1-3.585 11.44l.025-.158-3.417-5.767a14.415 14.415 0 0 1-2.857 2.191 24.81 24.81 0 0 1-1.663.902l6.5 10.996.06.196.038-.03.005.008.002-.013c5.931-4.551 9.755-11.711 9.755-19.765"/></g></svg>