<svg xmlns="http://www.w3.org/2000/svg" width="1249" height="791" viewBox="0 0 1249 791"><g fill="none" fill-rule="evenodd"><path fill="#EAF2F7" d="M451 0h335v128H451z"/><text fill="#333" font-family="ProximaNovaA-Bold, Proxima Nova Alt" font-size="31" font-weight="bold" transform="translate(451)"><tspan x="118.726" y="65">BOARD</tspan></text><text fill="#333" font-family="ProximaNovaA-Regular, Proxima Nova Alt" font-size="12" transform="translate(451)"><tspan x="100.104" y="86">INVESTMENT COMMITTEE</tspan></text><path fill="#EAF2F7" d="M451 210h335v128H451z"/><text fill="#333" font-family="ProximaNovaA-Bold, Proxima Nova Alt" font-size="31" font-weight="bold" transform="translate(451 210)"><tspan x="43.073" y="75">MANAGING TEAM</tspan></text><path fill="#F8E71C" d="M451 420h335v128H451z"/><text fill="#333" font-family="ProximaNovaA-Bold, Proxima Nova Alt" font-size="31" font-weight="bold" transform="translate(451 420)"><tspan x="94.318" y="75">PARTNERS</tspan></text><path fill="#DCE4E8" d="M126 701h300v90H126z"/><text fill="#333" font-family="ProximaNovaA-Bold, Proxima Nova Alt" font-size="20" font-weight="bold" transform="translate(126 701)"><tspan x="100.298" y="51">STARTUPS</tspan></text><path fill="#DCE4E8" d="M811 701h300v90H811z"/><text fill="#333" font-family="ProximaNovaA-Bold, Proxima Nova Alt" font-size="20" font-weight="bold" transform="translate(811 701)"><tspan x="35.156" y="51">PORTFOLIO COMPANIES</tspan></text><path stroke="#979797" stroke-dasharray="2,4" stroke-linecap="square" d="M0 169h1249M0 379h1249" opacity=".2"/><path fill="#EAF2F7" d="M957 91h2v604h-2zm212 113h2v552h-2zM275 91h2v604h-2z"/><path stroke="#979797" stroke-dasharray="2,4" stroke-linecap="square" d="M0 589h1249" opacity=".2"/><path fill="#0067A5" d="M958 175l8-11h-16zm-682-12l8 11h-16zm682 223l8-11h-16zm-682-13l8 11h-16zm682 223l8-11h-16zm211-101l8-11h-16zm-893 87l8 11h-16zm682 106l8-11h-16zm211-30l8-11h-16zm-893 18l8 11h-16z"/><g transform="translate(878 47)"><rect width="166" height="38" fill="#EAF2F7" rx="19"/><text fill="#333" font-family="ProximaNovaA-Regular, Proxima Nova Alt" font-size="14"><tspan x="19.889" y="23">Investment Decision</tspan></text></g><g transform="translate(846 258)"><rect width="230" height="38" fill="#EAF2F7" opacity=".9" rx="19"/><text fill="#333" font-family="ProximaNovaA-Regular, Proxima Nova Alt" font-size="14"><tspan x="49.212" y="23">Monitoring / Investing</tspan></text></g><g transform="translate(193 47)"><rect width="166" height="38" fill="#EAF2F7" rx="19"/><text fill="#333" font-family="ProximaNovaA-Regular, Proxima Nova Alt" font-size="14"><tspan x="18.88" y="23">Investment Proposal</tspan></text></g><path fill="#F8E71C" d="M265 483h192v8H265z"/><g transform="translate(161 258)"><rect width="230" height="38" fill="#EAF2F7" opacity=".9" rx="19"/><text fill="#333" font-family="ProximaNovaA-Regular, Proxima Nova Alt" font-size="14"><tspan x="34.308" y="24">Screening / Due Diligences</tspan></text></g><path fill="#F8E71C" d="M780 483h192v8H780z"/><g transform="translate(193 468)"><rect width="166" height="38" fill="#EAF2F7" rx="19"/><text fill="#333" font-family="ProximaNovaA-Regular, Proxima Nova Alt" font-size="14"><tspan x="20.275" y="23">Vouch the company</tspan></text></g><g transform="translate(193 630)"><rect width="166" height="38" fill="#EAF2F7" rx="19"/><text fill="#333" font-family="ProximaNovaA-Regular, Proxima Nova Alt" font-size="14"><tspan x="27.367" y="23">Events &amp; Network</tspan></text></g><g transform="translate(878 630)"><rect width="166" height="38" fill="#EAF2F7" rx="19"/><text fill="#333" font-family="ProximaNovaA-Regular, Proxima Nova Alt" font-size="14"><tspan x="29.459" y="23">Close Monitoring</tspan></text></g><g transform="translate(878 468)"><rect width="166" height="38" fill="#EAF2F7" rx="19"/><text fill="#333" font-family="ProximaNovaA-Regular, Proxima Nova Alt" font-size="14"><tspan x="20.159" y="23">Capacity &amp; Network</tspan></text></g><g transform="translate(1106 175)"><rect width="125" height="38" fill="#EAF2F7" rx="19"/><text fill="#333" font-family="ProximaNovaA-Regular, Proxima Nova Alt" font-size="14"><tspan x="36.486" y="23">Services</tspan></text></g><g transform="translate(1106 215)"><rect width="125" height="38" fill="#EAF2F7" rx="19"/><text fill="#333" font-family="ProximaNovaA-Regular, Proxima Nova Alt" font-size="14"><tspan x="27.049" y="23">Networking</tspan></text></g><g transform="translate(1106 255)"><rect width="125" height="38" fill="#EAF2F7" rx="19"/><text fill="#333" font-family="ProximaNovaA-Regular, Proxima Nova Alt" font-size="14"><tspan x="46.217" y="23">Skills</tspan></text></g><g transform="translate(1106 295)"><rect width="125" height="38" fill="#EAF2F7" rx="19"/><text fill="#333" font-family="ProximaNovaA-Regular, Proxima Nova Alt" font-size="14"><tspan x="45.701" y="23">Team</tspan></text></g><g transform="translate(1106 336)"><rect width="125" height="38" fill="#EAF2F7" rx="19"/><text fill="#333" font-family="ProximaNovaA-Regular, Proxima Nova Alt" font-size="14"><tspan x="38.171" y="23">Support</tspan></text></g><path fill="#EAF2F7" d="M345 61h192v8H345zm38 213h76v8h-76zM780 61h106v8H780zm0 213h85v8h-85zm296 0h44v8h-44zm43 480h52v2h-52z"/><path fill="#0067A5" d="M1122.5 754.5l11 8v-16z"/></g></svg>