<svg xmlns="http://www.w3.org/2000/svg" xmlns:xlink="http://www.w3.org/1999/xlink" width="197" height="75" viewBox="0 0 197 75">
    <defs>
        <path id="a" d="M0 0h198v86H0z"/>
    </defs>
    <g fill="none" fill-rule="evenodd" transform="translate(0 -11)">
        <mask id="b" fill="#fff">
            <use xlink:href="#a"/>
        </mask>
        <path fill="#0067A5" d="M36.411 129.058L84.878 45.08l3.523 5.87 22.05-39.92 51.96 87.704-4.19 26.69z" mask="url(#b)"/>
        <path fill="#0067A5" d="M9 121.088L37.781 71.22l2.092 3.486L52.967 51l30.855 52.081-2.488 15.849zM107 141.18l35.389-61.318 2.572 4.287L161.061 55 199 119.038l-3.06 19.488z" mask="url(#b)"/>
        <path fill="#0067A5" d="M133 156.18l35.389-61.318 2.572 4.287L187.061 70 225 134.038l-3.06 19.488zM-12 108.088L5.694 77.43l1.286 2.143 8.05-14.575L34 97.018l-1.53 9.743z" mask="url(#b)"/>
    </g>
</svg>
