<svg xmlns="http://www.w3.org/2000/svg" width="237" height="243" viewBox="0 0 237 243">
    <g fill="#FFF" fill-rule="evenodd">
        <path d="M186.64 58.296c-4.713 9.46-6.623 18.528-6.623 18.528s.013-12.151 2.616-19.969c-7.432 6.062-10.288 13.187-13.282 20.656-1.845 4.604-3.753 9.364-6.74 13.903-3.461 5.257-7.896 9.432-13.559 12.763-14.316 8.422-24.425 8.796-35.13 9.194-6.507.24-13.236.49-21.651 2.65-16.11 4.139-31.238 12.65-31.391 12.737l-22.397 25.527L90.458 64.65l3.777 6.266 23.647-42.61 31.41 52.773c-2.023 3.403-4.616 6.26-8.783 8.712-2.01 1.184-3.877 2.152-5.648 2.946L117.88 64.15 94.236 97.736l-4.03-6.642-14.088 19.607c4.246-1.616 8.884-3.167 13.637-4.388 9.47-2.432 17.08-2.714 23.794-2.963 10.202-.377 18.261-.676 30.378-7.805 9.62-5.659 12.608-13.115 16.068-21.75 3.073-7.667 6.473-16.149 14.904-23.56-7.763-1.01-16.63-4.312-16.63-4.312s9.2 1.406 19.754.34c13.57-1.373 20.612-5.232 20.612-5.232.172-.103-5.933 5.104-11.993 17.265z"/>
        <path d="M56.07 110.581a66.684 66.684 0 0 1-5.45-26.488c0-37.1 30.215-67.174 67.49-67.174 20.307 0 38.518 8.927 50.891 23.055a75.48 75.48 0 0 0 8.342-.362c4.247-.43 7.771-1.124 10.55-1.838-15.041-22.405-40.68-37.16-69.784-37.16-46.32 0-83.87 37.375-83.87 83.479 0 15.83 4.427 30.63 12.116 43.243l9.716-16.755zM155.243 140.193c-10.652 6.998-23.415 11.074-37.134 11.074-19.473 0-37.02-8.21-49.339-21.341l-10.82 12.332c15.24 15.612 36.561 25.313 60.159 25.313 16.77 0 32.39-4.9 45.496-13.34a6.546 6.546 0 0 1-.276-.424l-8.086-13.614zM196.526 54.419a73.5 73.5 0 0 0-3.869 6.846c-4.283 8.597-6.05 16.847-6.068 16.93a6.653 6.653 0 0 1-1.077 2.471c.057 1.135.086 2.277.086 3.427a66.648 66.648 0 0 1-12.08 38.358l.084-.532-11.509-19.336c-2.812 2.782-6.002 5.218-9.623 7.349a84.264 84.264 0 0 1-5.603 3.023l21.898 36.869.2.655.152-.118c19.98-15.258 32.862-39.266 32.862-66.268 0-10.452-1.93-20.454-5.453-29.674z"/>
        <g>
            <path d="M6.207 204.546V218H0v-30h6.207v11.365h11.586V188H24v30h-6.207v-13.454zM30 218h6v-30h-6zM71 218h-5.833v-25.07h-.084L59.5 218h-6.125l-5.459-25.07h-.083V218H42v-30h9.125l5.416 23.649h.084L61.958 188H71zM85.545 206.635h7.781l-3.784-11.866h-.085l-3.912 11.866zM81.718 218H75l10.886-30h7.355L104 218h-6.931l-1.956-6.184h-11.27L81.719 218zM113.212 212.568H128V218h-21v-30h6.212zM141.545 206.635h7.781l-3.784-11.866h-.085l-3.912 11.866zM137.718 218H131l10.886-30h7.355L160 218h-6.931l-1.956-6.184h-11.27L137.719 218zM172.843 218h-6.347v-11.323L156 188h7.49l6.306 13.036 6.01-13.036H183l-10.157 18.76zM189.545 206.635h7.781l-3.784-11.866h-.085l-3.912 11.866zM185.718 218H179l10.886-30h7.355L208 218h-6.931l-1.956-6.184h-11.27L185.719 218zM231.017 188H237v30h-6.41l-12.521-21.393h-.086V218H212v-30h6.752l12.18 20.892h.085zM2.353 232.324h4.68c2.11 0 3.541-.802 3.541-3.234 0-2.282-1.503-3.009-3.444-3.009H2.353v6.243zm0 9.676H0v-18h7.834c3.226 0 5.166 2.156 5.166 5.065 0 2.506-1.383 5.34-5.166 5.34H2.353V242zM38.7 234.604l-2.65-7.921H36l-2.875 7.921H38.7zm-6.325 2.156L30.499 242H28l6.75-18h2.75l6.5 18h-2.65l-1.776-5.24h-7.2zM63.442 232.198h5.663c1.786 0 3.674-.451 3.674-3.109 0-2.782-2.038-3.009-3.246-3.009h-6.091v6.118zm0 9.802H61v-18h8.356c2.97 0 5.94 1.028 5.94 4.839 0 2.657-1.36 3.635-2.517 4.311 1.03.427 2.064.878 2.164 3.385l.151 3.259c.025 1.003.152 1.379.906 1.805V242h-2.995c-.352-1.103-.427-3.835-.427-4.513 0-1.478-.303-3.209-3.222-3.209h-5.914V242zM92 224h15v2.156h-6.252V242h-2.495v-15.844H92zM135.692 224H138v18h-2.677l-8.965-14.54h-.049V242H124v-18h2.825l8.817 14.54h.05zM170 242h-13v-18h12.828v2.156H159.38v5.516h9.639v2.156h-9.64v6.016H170zM191.442 232.198h5.663c1.786 0 3.674-.451 3.674-3.109 0-2.782-2.038-3.009-3.246-3.009h-6.091v6.118zm0 9.802H189v-18h8.356c2.97 0 5.94 1.028 5.94 4.839 0 2.657-1.36 3.635-2.517 4.311 1.03.427 2.064.878 2.164 3.385l.151 3.259c.025 1.003.152 1.379.906 1.805V242h-2.995c-.352-1.103-.427-3.835-.427-4.513 0-1.478-.303-3.209-3.222-3.209h-5.914V242zM232.279 229.756c-.123-2.79-2.38-3.67-4.365-3.67-1.495 0-4.02.428-4.02 3.167 0 1.534 1.053 2.036 2.083 2.288l5.027 1.18c2.28.553 3.996 1.96 3.996 4.826 0 4.272-3.873 5.453-6.89 5.453-3.26 0-4.535-1.005-5.32-1.734-1.496-1.382-1.79-2.89-1.79-4.573h2.231c0 3.266 2.599 4.221 4.855 4.221 1.716 0 4.61-.451 4.61-3.04 0-1.886-.858-2.489-3.752-3.193l-3.604-.854c-1.152-.276-3.752-1.105-3.752-4.247 0-2.815 1.79-5.58 6.057-5.58 6.154 0 6.767 3.77 6.864 5.756h-2.23z"/>
        </g>
    </g>
</svg>
