<svg xmlns="http://www.w3.org/2000/svg" xmlns:xlink="http://www.w3.org/1999/xlink" width="192" height="173" viewBox="0 0 192 173">
    <defs>
        <path id="a" d="M192 121v49H0v-49h64V72h64V23h64v98z"/>
    </defs>
    <g fill="none" fill-rule="evenodd">
        <path fill="#51BEFF" d="M0 11h192v162H0z"/>
        <g transform="translate(0 3)">
            <use fill="#FFF" xlink:href="#a"/>
            <path stroke="#0067A5" stroke-width="2" d="M191 24h-62v49H65v49H1v47h190V24z"/>
        </g>
        <path fill="#0067A5" d="M101 126h15v2h-15zM159 136h15v2h-15zM40 160h15v2H40zM159 113h15v2h-15zM177 126h15v2h-15z"/>
        <path fill="#94EFFF" d="M3 131h62v20H3zM66 82h64v20H66zM130 32h60v20h-60z"/>
        <path fill="#FFF" stroke="#0067A5" stroke-width="2" d="M25.143 114.059C20.282 116.805 17 122.019 17 128c0 8.837 7.163 16 16 16s16-7.163 16-16c0-5.409-2.684-10.19-6.792-13.086L52 98l-14.782 6.208L29.542 98l-4.253 6.208L15 98l10.143 16.059z"/>
        <text fill="#0067A5" font-family="ProximaNovaA-Bold, Proxima Nova Alt" font-size="15" font-weight="bold" opacity=".5" transform="translate(15 98)">
            <tspan x="13" y="37">$</tspan>
        </text>
        <path fill="#F8E71C" d="M46.415 105.687l2.831-5.298-12.532 4.683-6.81-5.4c-2.413 3.6-3.862 5.4-4.347 5.4-1.906 0-4.229-1.257-6.969-3.77l7.79 13.82C21.388 118.053 18 123.588 18 129c0 7.806 7.044 13.678 15.779 13.776C29.706 140.208 27 135.67 27 130.5c0-5.258 2.8-9.863 6.989-12.405L28 107.945l18.415-2.258z"/>
        <g>
            <path fill="#FFF" stroke="#0067A5" stroke-width="2" d="M89.143 65.059C84.282 67.805 81 73.019 81 79c0 8.837 7.163 16 16 16s16-7.163 16-16c0-5.409-2.684-10.19-6.792-13.086L116 49l-14.782 6.208L93.542 49l-4.253 6.208L79 49l10.143 16.059z"/>
            <text fill="#0067A5" font-family="ProximaNovaA-Bold, Proxima Nova Alt" font-size="15" font-weight="bold" opacity=".5" transform="translate(79 49)">
                <tspan x="13" y="37">$</tspan>
            </text>
            <path fill="#F8E71C" d="M110.415 56.687l2.831-5.298-12.532 4.683-6.81-5.4c-2.413 3.6-3.862 5.4-4.347 5.4-1.906 0-4.229-1.257-6.969-3.77l7.79 13.82C85.388 69.053 82 74.588 82 80c0 7.806 7.044 13.678 15.779 13.776C93.706 91.208 91 86.67 91 81.5c0-5.258 2.8-9.863 6.989-12.405L92 58.945l18.415-2.258z"/>
        </g>
        <g>
            <path fill="#FFF" stroke="#0067A5" stroke-width="2" d="M152.143 19.059C147.282 21.805 144 27.019 144 33c0 8.837 7.163 16 16 16s16-7.163 16-16c0-5.409-2.684-10.19-6.792-13.086L179 3l-14.782 6.208L156.542 3l-4.253 6.208L142 3l10.143 16.059z"/>
            <text fill="#0067A5" font-family="ProximaNovaA-Bold, Proxima Nova Alt" font-size="15" font-weight="bold" opacity=".5" transform="translate(142 3)">
                <tspan x="13" y="37">$</tspan>
            </text>
            <path fill="#F8E71C" d="M173.415 10.687l2.831-5.298-12.532 4.683-6.81-5.4c-2.413 3.6-3.862 5.4-4.347 5.4-1.906 0-4.229-1.257-6.969-3.77l7.79 13.82C148.388 23.053 145 28.588 145 34c0 7.806 7.044 13.678 15.779 13.776C156.706 45.208 154 40.67 154 35.5c0-5.258 2.8-9.863 6.989-12.405L155 12.945l18.415-2.258z"/>
        </g>
    </g>
</svg>
