<svg xmlns="http://www.w3.org/2000/svg" xmlns:xlink="http://www.w3.org/1999/xlink" width="192" height="174" viewBox="0 0 192 174">
    <defs>
        <path id="a" d="M0 0h192v162H0z"/>
        <path id="c" d="M45 90C20.147 90 0 69.853 0 45S20.147 0 45 0s45 20.147 45 45-20.147 45-45 45zm.5-22C57.926 68 68 57.926 68 45.5S57.926 23 45.5 23 23 33.074 23 45.5 33.074 68 45.5 68z"/>
        <path id="e" d="M37-9h16V97H37z"/>
        <path id="f" d="M37-9h16V97H37z"/>
    </defs>
    <g fill="none" fill-rule="evenodd">
        <g transform="translate(0 12)">
            <mask id="b" fill="#fff">
                <use xlink:href="#a"/>
            </mask>
            <use fill="#51BEFF" xlink:href="#a"/>
            <path fill="#FFF" d="M48.488 83.101c1.965.158 6.5-5.45 6.5-9.04a6.5 6.5 0 1 0-13 0c0 3.59 4.535 8.883 6.5 9.04z" mask="url(#b)" transform="rotate(-17 48.488 75.333)"/>
            <path fill="#FFF" d="M167.827 120.877c1.965.157 6.5-5.45 6.5-9.04a6.5 6.5 0 1 0-13 0c0 3.59 4.535 8.882 6.5 9.04z" mask="url(#b)" opacity=".4" transform="rotate(36 167.827 113.108)"/>
            <path fill="#FFF" d="M17.827 120.877c1.965.157 6.5-5.45 6.5-9.04a6.5 6.5 0 1 0-13 0c0 3.59 4.535 8.882 6.5 9.04z" mask="url(#b)" opacity=".4" transform="scale(-1 1) rotate(36 0 58.243)"/>
            <path fill="#FFF" d="M33.827 51.877c1.965.157 6.5-5.45 6.5-9.04a6.5 6.5 0 0 0-13 0c0 3.59 4.535 8.882 6.5 9.04z" mask="url(#b)" opacity=".4" transform="rotate(-21 33.827 44.108)"/>
            <path fill="#FFF" d="M159.827 45.877c1.965.157 6.5-5.45 6.5-9.04a6.5 6.5 0 1 0-13 0c0 3.59 4.535 8.882 6.5 9.04z" mask="url(#b)" transform="rotate(19 159.827 38.108)"/>
            <path fill="#FFF" d="M130.327 90.9c1.21.097 4-3.355 4-5.564a4 4 0 1 0-8 0c0 2.21 2.79 5.467 4 5.564z" mask="url(#b)" transform="rotate(36 130.327 86.119)"/>
            <path fill="#0067A5" d="M30 140h15v2H30zM70 140h15v2H70zM110 140h15v2h-15zM150 140h15v2h-15zM30 100h15v2H30zM70 100h15v2H70zM110 100h15v2h-15zM150 100h15v2h-15zM130 150h15v2h-15zM90 150h15v2H90zM51 150h15v2H51zM51 130h15v2H51zM91 130h15v2H91zM131 130h15v2h-15zM70 120h15v2H70zM110 120h15v2h-15zM51 110h15v2H51zM91 110h15v2H91zM131 110h15v2h-15zM11 150h15v2H11z" mask="url(#b)"/>
        </g>
        <g transform="translate(51 2)">
            <mask id="d" fill="#fff">
                <use xlink:href="#c"/>
            </mask>
            <use fill="#FFF" xlink:href="#c"/>
            <path stroke="#0067A5" stroke-width="2" d="M45 91C19.595 91-1 70.405-1 45S19.595-1 45-1s46 20.595 46 46-20.595 46-46 46zm.5-24C57.374 67 67 57.374 67 45.5S57.374 24 45.5 24 24 33.626 24 45.5 33.626 67 45.5 67z"/>
            <g mask="url(#d)">
                <use fill="#94EFFF" xlink:href="#e"/>
                <path stroke="#0067A5" stroke-width="2" d="M38-8h14V96H38z"/>
            </g>
            <g mask="url(#d)" transform="rotate(90 45 44)">
                <use fill="#94EFFF" xlink:href="#f"/>
                <path stroke="#0067A5" stroke-width="2" d="M38-8h14V96H38z"/>
            </g>
            <path fill="#F8E71C" d="M27.021 87.8C10.746 80.75-.64 64.545-.64 45.68-.64 20.34 19.901-.2 45.24-.2c11.651 0 22.288 4.343 30.38 11.498a45.728 45.728 0 0 0-18.22-3.76c-25.338 0-45.88 20.541-45.88 45.88 0 13.688 5.995 25.975 15.501 34.382z" mask="url(#d)" opacity=".5"/>
        </g>
    </g>
</svg>
