<svg xmlns="http://www.w3.org/2000/svg" width="24" height="24" viewBox="0 0 24 24">
    <path fill="#FFF" fill-rule="evenodd" d="M20 7.531a6.924 6.924 0 0 1-1.89.531 3.317 3.317 0 0 0 1.453-1.828 6.534 6.534 0 0 1-2.094.797A3.254 3.254 0 0 0 15.079 6a3.28 3.28 0 0 0-3.282 3.281c0 .25.016.516.078.75a9.323 9.323 0 0 1-6.781-3.437A3.33 3.33 0 0 0 4.64 8.25c0 1.14.53 2.14 1.422 2.734-.547-.015-1.063-.172-1.563-.406v.031c0 1.594 1.203 2.922 2.703 3.22a2.74 2.74 0 0 1-.797.124 4.03 4.03 0 0 1-.61-.062 3.301 3.301 0 0 0 3.063 2.28A6.608 6.608 0 0 1 4 17.532 9.352 9.352 0 0 0 9.031 19c6.032 0 9.344-5 9.344-9.344 0-.14 0-.281-.016-.422A6.31 6.31 0 0 0 20 7.531zM24 4.5v15c0 2.484-2.016 4.5-4.5 4.5h-15A4.501 4.501 0 0 1 0 19.5v-15C0 2.016 2.016 0 4.5 0h15C21.984 0 24 2.016 24 4.5z"/>
</svg>
